<svg id="visual" viewBox="0 0 900 600" width="900" height="600" xmlns="http://www.w3.org/2000/svg" xmlns:xlink="http://www.w3.org/1999/xlink" version="1.1"><rect x="0" y="0" width="900" height="600" fill="#255544"></rect><path d="M0 409L21.5 415C43 421 86 433 128.8 446.2C171.7 459.3 214.3 473.7 257.2 475.3C300 477 343 466 385.8 463.5C428.7 461 471.3 467 514.2 463.3C557 459.7 600 446.3 642.8 435.7C685.7 425 728.3 417 771.2 428.7C814 440.3 857 471.7 878.5 487.3L900 503L900 601L878.5 601C857 601 814 601 771.2 601C728.3 601 685.7 601 642.8 601C600 601 557 601 514.2 601C471.3 601 428.7 601 385.8 601C343 601 300 601 257.2 601C214.3 601 171.7 601 128.8 601C86 601 43 601 21.5 601L0 601Z" fill="#2d2d2d" stroke-linecap="round" stroke-linejoin="miter"></path></svg>