<svg width="271" height="147" viewBox="0 0 271 147" fill="none" xmlns="http://www.w3.org/2000/svg">
<mask id="path-1-inside-1_46_73" fill="white">
<path d="M138.945 45.592C144.404 30.9606 154.767 18.6746 168.268 10.8274C181.77 2.98014 197.575 0.057192 212.99 2.55658C228.405 5.05596 242.477 12.823 252.807 24.5344C263.138 36.2457 269.088 51.1767 269.644 66.7833C270.2 82.3898 265.327 97.7064 255.857 110.123C246.386 122.54 232.902 131.289 217.704 134.879C202.506 138.469 186.533 136.678 172.507 129.811C158.481 122.945 147.27 111.427 140.784 97.2214L154.039 91.1695C159.125 102.309 167.916 111.34 178.914 116.724C189.912 122.108 202.437 123.513 214.354 120.698C226.272 117.882 236.844 111.022 244.271 101.286C251.697 91.5497 255.518 79.5396 255.082 67.302C254.646 55.0645 249.98 43.3567 241.88 34.1735C233.779 24.9903 222.745 18.9 210.658 16.9401C198.57 14.9803 186.177 17.2723 175.59 23.4255C165.003 29.5787 156.877 39.2125 152.597 50.6854L138.945 45.592Z"/>
</mask>
<path d="M138.945 45.592C144.404 30.9606 154.767 18.6746 168.268 10.8274C181.77 2.98014 197.575 0.057192 212.99 2.55658C228.405 5.05596 242.477 12.823 252.807 24.5344C263.138 36.2457 269.088 51.1767 269.644 66.7833C270.2 82.3898 265.327 97.7064 255.857 110.123C246.386 122.54 232.902 131.289 217.704 134.879C202.506 138.469 186.533 136.678 172.507 129.811C158.481 122.945 147.27 111.427 140.784 97.2214L154.039 91.1695C159.125 102.309 167.916 111.34 178.914 116.724C189.912 122.108 202.437 123.513 214.354 120.698C226.272 117.882 236.844 111.022 244.271 101.286C251.697 91.5497 255.518 79.5396 255.082 67.302C254.646 55.0645 249.98 43.3567 241.88 34.1735C233.779 24.9903 222.745 18.9 210.658 16.9401C198.57 14.9803 186.177 17.2723 175.59 23.4255C165.003 29.5787 156.877 39.2125 152.597 50.6854L138.945 45.592Z" fill="#096F4B" stroke="#255544" stroke-width="4" mask="url(#path-1-inside-1_46_73)"/>
<mask id="path-2-inside-2_46_73" fill="white">
<path d="M130.553 96.907C124.926 111.475 114.422 123.641 100.831 131.332C87.2403 139.023 71.4028 141.764 56.0174 139.088C40.632 136.411 26.6506 128.483 16.4556 116.653C6.26048 104.824 0.482485 89.8254 0.10608 74.2135C-0.270325 58.6015 4.77815 43.342 14.3913 31.0351C24.0044 18.7281 37.5875 10.1351 52.826 6.72014C68.0645 3.30523 84.0157 5.27972 97.9617 12.3072C111.908 19.3346 122.985 30.9803 129.308 45.2598L116.027 51.1398C111.065 39.9329 102.371 30.7931 91.4257 25.2778C80.4806 19.7625 67.9617 18.2128 56.0021 20.8929C44.0425 23.573 33.3822 30.3171 25.8376 39.9759C18.2929 49.6347 14.3308 61.6107 14.6262 73.8634C14.9216 86.116 19.4563 97.8872 27.4576 107.171C35.459 116.455 46.4319 122.678 58.5068 124.778C70.5816 126.879 83.0113 124.728 93.6779 118.691C104.345 112.655 112.588 103.107 117.004 91.6739L130.553 96.907Z"/>
</mask>
<path d="M130.553 96.907C124.926 111.475 114.422 123.641 100.831 131.332C87.2403 139.023 71.4028 141.764 56.0174 139.088C40.632 136.411 26.6506 128.483 16.4556 116.653C6.26048 104.824 0.482485 89.8254 0.10608 74.2135C-0.270325 58.6015 4.77815 43.342 14.3913 31.0351C24.0044 18.7281 37.5875 10.1351 52.826 6.72014C68.0645 3.30523 84.0157 5.27972 97.9617 12.3072C111.908 19.3346 122.985 30.9803 129.308 45.2598L116.027 51.1398C111.065 39.9329 102.371 30.7931 91.4257 25.2778C80.4806 19.7625 67.9617 18.2128 56.0021 20.8929C44.0425 23.573 33.3822 30.3171 25.8376 39.9759C18.2929 49.6347 14.3308 61.6107 14.6262 73.8634C14.9216 86.116 19.4563 97.8872 27.4576 107.171C35.459 116.455 46.4319 122.678 58.5068 124.778C70.5816 126.879 83.0113 124.728 93.6779 118.691C104.345 112.655 112.588 103.107 117.004 91.6739L130.553 96.907Z" fill="#096F4B" stroke="#255544" stroke-width="4" mask="url(#path-2-inside-2_46_73)"/>
<path d="M43.12 81.504C41.128 81.504 39.28 81.192 37.576 80.568C35.872 79.92 34.396 79.008 33.148 77.832C31.924 76.656 30.964 75.276 30.268 73.692C29.572 72.084 29.224 70.32 29.224 68.4C29.224 66.48 29.572 64.728 30.268 63.144C30.964 61.536 31.936 60.144 33.184 58.968C34.432 57.792 35.908 56.892 37.612 56.268C39.34 55.62 41.224 55.296 43.264 55.296C45.64 55.296 47.764 55.692 49.636 56.484C51.508 57.276 53.056 58.416 54.28 59.904L49.744 64.008C48.88 63.072 47.944 62.376 46.936 61.92C45.952 61.44 44.848 61.2 43.624 61.2C42.544 61.2 41.56 61.368 40.672 61.704C39.784 62.04 39.028 62.532 38.404 63.18C37.78 63.804 37.288 64.56 36.928 65.448C36.592 66.312 36.424 67.296 36.424 68.4C36.424 69.456 36.592 70.428 36.928 71.316C37.288 72.204 37.78 72.972 38.404 73.62C39.028 74.244 39.772 74.736 40.636 75.096C41.524 75.432 42.496 75.6 43.552 75.6C44.608 75.6 45.64 75.432 46.648 75.096C47.656 74.736 48.676 74.136 49.708 73.296L53.704 78.3C52.264 79.332 50.596 80.124 48.7 80.676C46.804 81.228 44.944 81.504 43.12 81.504ZM47.404 77.364V67.86H53.704V78.3L47.404 77.364ZM57.8991 81V61.488H64.4151V67.176L63.4431 65.556C64.0191 64.092 64.9551 63 66.2511 62.28C67.5471 61.536 69.1191 61.164 70.9671 61.164V67.32C70.6551 67.272 70.3791 67.248 70.1391 67.248C69.9231 67.224 69.6831 67.212 69.4191 67.212C68.0271 67.212 66.8991 67.596 66.0351 68.364C65.1711 69.108 64.7391 70.332 64.7391 72.036V81H57.8991ZM83.838 81.324C81.534 81.324 79.518 80.892 77.79 80.028C76.086 79.14 74.754 77.94 73.794 76.428C72.858 74.892 72.39 73.152 72.39 71.208C72.39 69.264 72.846 67.536 73.758 66.024C74.694 64.488 75.978 63.3 77.61 62.46C79.242 61.596 81.078 61.164 83.118 61.164C85.038 61.164 86.79 61.56 88.374 62.352C89.958 63.12 91.218 64.26 92.154 65.772C93.09 67.284 93.558 69.12 93.558 71.28C93.558 71.52 93.546 71.796 93.522 72.108C93.498 72.42 93.474 72.708 93.45 72.972H78.006V69.372H89.814L87.222 70.38C87.246 69.492 87.078 68.724 86.718 68.076C86.382 67.428 85.902 66.924 85.278 66.564C84.678 66.204 83.97 66.024 83.154 66.024C82.338 66.024 81.618 66.204 80.994 66.564C80.394 66.924 79.926 67.44 79.59 68.112C79.254 68.76 79.086 69.528 79.086 70.416V71.46C79.086 72.42 79.278 73.248 79.662 73.944C80.07 74.64 80.646 75.18 81.39 75.564C82.134 75.924 83.022 76.104 84.054 76.104C85.014 76.104 85.83 75.972 86.502 75.708C87.198 75.42 87.882 74.988 88.554 74.412L92.154 78.156C91.218 79.188 90.066 79.98 88.698 80.532C87.33 81.06 85.71 81.324 83.838 81.324ZM106.936 81.324C104.632 81.324 102.616 80.892 100.888 80.028C99.1836 79.14 97.8516 77.94 96.8916 76.428C95.9556 74.892 95.4876 73.152 95.4876 71.208C95.4876 69.264 95.9436 67.536 96.8556 66.024C97.7916 64.488 99.0756 63.3 100.708 62.46C102.34 61.596 104.176 61.164 106.216 61.164C108.136 61.164 109.888 61.56 111.472 62.352C113.056 63.12 114.316 64.26 115.252 65.772C116.188 67.284 116.656 69.12 116.656 71.28C116.656 71.52 116.644 71.796 116.62 72.108C116.596 72.42 116.572 72.708 116.548 72.972H101.104V69.372H112.912L110.32 70.38C110.344 69.492 110.176 68.724 109.816 68.076C109.48 67.428 109 66.924 108.376 66.564C107.776 66.204 107.068 66.024 106.252 66.024C105.436 66.024 104.716 66.204 104.092 66.564C103.492 66.924 103.024 67.44 102.688 68.112C102.352 68.76 102.184 69.528 102.184 70.416V71.46C102.184 72.42 102.376 73.248 102.76 73.944C103.168 74.64 103.744 75.18 104.488 75.564C105.232 75.924 106.12 76.104 107.152 76.104C108.112 76.104 108.928 75.972 109.6 75.708C110.296 75.42 110.98 74.988 111.652 74.412L115.252 78.156C114.316 79.188 113.164 79.98 111.796 80.532C110.428 81.06 108.808 81.324 106.936 81.324ZM132.517 61.164C134.029 61.164 135.397 61.476 136.621 62.1C137.845 62.7 138.805 63.636 139.501 64.908C140.221 66.18 140.581 67.824 140.581 69.84V81H133.741V70.956C133.741 69.564 133.453 68.556 132.877 67.932C132.325 67.284 131.545 66.96 130.537 66.96C129.817 66.96 129.157 67.128 128.557 67.464C127.957 67.776 127.489 68.268 127.153 68.94C126.817 69.612 126.649 70.488 126.649 71.568V81H119.809V61.488H126.325V67.032L125.065 65.412C125.809 63.996 126.829 62.94 128.125 62.244C129.421 61.524 130.885 61.164 132.517 61.164ZM145.2 81V55.8H152.328V75.348H164.352V81H145.2ZM176.57 81.324C174.434 81.324 172.538 80.892 170.882 80.028C169.226 79.164 167.918 77.976 166.958 76.464C166.022 74.928 165.554 73.176 165.554 71.208C165.554 69.24 166.022 67.5 166.958 65.988C167.918 64.476 169.226 63.3 170.882 62.46C172.538 61.596 174.434 61.164 176.57 61.164C178.706 61.164 180.602 61.596 182.258 62.46C183.938 63.3 185.246 64.476 186.182 65.988C187.118 67.5 187.586 69.24 187.586 71.208C187.586 73.176 187.118 74.928 186.182 76.464C185.246 77.976 183.938 79.164 182.258 80.028C180.602 80.892 178.706 81.324 176.57 81.324ZM176.57 75.888C177.362 75.888 178.058 75.708 178.658 75.348C179.282 74.988 179.774 74.46 180.134 73.764C180.494 73.044 180.674 72.192 180.674 71.208C180.674 70.224 180.494 69.396 180.134 68.724C179.774 68.028 179.282 67.5 178.658 67.14C178.058 66.78 177.362 66.6 176.57 66.6C175.802 66.6 175.106 66.78 174.482 67.14C173.882 67.5 173.39 68.028 173.006 68.724C172.646 69.396 172.466 70.224 172.466 71.208C172.466 72.192 172.646 73.044 173.006 73.764C173.39 74.46 173.882 74.988 174.482 75.348C175.106 75.708 175.802 75.888 176.57 75.888ZM200.547 81.324C198.411 81.324 196.515 80.892 194.859 80.028C193.203 79.164 191.895 77.976 190.935 76.464C189.999 74.928 189.531 73.176 189.531 71.208C189.531 69.24 189.999 67.5 190.935 65.988C191.895 64.476 193.203 63.3 194.859 62.46C196.515 61.596 198.411 61.164 200.547 61.164C202.683 61.164 204.579 61.596 206.235 62.46C207.915 63.3 209.223 64.476 210.159 65.988C211.095 67.5 211.563 69.24 211.563 71.208C211.563 73.176 211.095 74.928 210.159 76.464C209.223 77.976 207.915 79.164 206.235 80.028C204.579 80.892 202.683 81.324 200.547 81.324ZM200.547 75.888C201.339 75.888 202.035 75.708 202.635 75.348C203.259 74.988 203.751 74.46 204.111 73.764C204.471 73.044 204.651 72.192 204.651 71.208C204.651 70.224 204.471 69.396 204.111 68.724C203.751 68.028 203.259 67.5 202.635 67.14C202.035 66.78 201.339 66.6 200.547 66.6C199.779 66.6 199.083 66.78 198.459 67.14C197.859 67.5 197.367 68.028 196.983 68.724C196.623 69.396 196.443 70.224 196.443 71.208C196.443 72.192 196.623 73.044 196.983 73.764C197.367 74.46 197.859 74.988 198.459 75.348C199.083 75.708 199.779 75.888 200.547 75.888ZM227.007 81.324C225.351 81.324 223.935 80.964 222.759 80.244C221.583 79.5 220.683 78.396 220.059 76.932C219.459 75.444 219.159 73.548 219.159 71.244C219.159 68.916 219.447 67.02 220.023 65.556C220.599 64.068 221.463 62.964 222.615 62.244C223.791 61.524 225.255 61.164 227.007 61.164C228.783 61.164 230.391 61.584 231.831 62.424C233.295 63.24 234.447 64.404 235.287 65.916C236.151 67.404 236.583 69.18 236.583 71.244C236.583 73.308 236.151 75.096 235.287 76.608C234.447 78.12 233.295 79.284 231.831 80.1C230.391 80.916 228.783 81.324 227.007 81.324ZM214.731 87.984V61.488H221.247V64.8L221.211 71.244L221.571 77.724V87.984H214.731ZM225.567 75.888C226.335 75.888 227.019 75.708 227.619 75.348C228.243 74.988 228.735 74.46 229.095 73.764C229.479 73.068 229.671 72.228 229.671 71.244C229.671 70.26 229.479 69.42 229.095 68.724C228.735 68.028 228.243 67.5 227.619 67.14C227.019 66.78 226.335 66.6 225.567 66.6C224.799 66.6 224.103 66.78 223.479 67.14C222.879 67.5 222.387 68.028 222.003 68.724C221.643 69.42 221.463 70.26 221.463 71.244C221.463 72.228 221.643 73.068 222.003 73.764C222.387 74.46 222.879 74.988 223.479 75.348C224.103 75.708 224.799 75.888 225.567 75.888Z" fill="white"/>
<path d="M125 139.667C123.75 138.417 122.771 136.972 122.062 135.333C121.354 133.694 121 132 121 130.25C121 128.5 121.333 126.771 122 125.063C122.667 123.354 123.75 121.75 125.25 120.25C126.222 119.278 127.424 118.444 128.854 117.75C130.285 117.056 131.979 116.507 133.938 116.104C135.896 115.701 138.132 115.458 140.646 115.375C143.16 115.292 145.972 115.389 149.083 115.667C149.306 118.611 149.375 121.319 149.292 123.792C149.208 126.264 148.979 128.493 148.604 130.479C148.229 132.465 147.701 134.201 147.021 135.688C146.34 137.174 145.5 138.417 144.5 139.417C143.028 140.889 141.465 141.965 139.812 142.646C138.16 143.326 136.472 143.667 134.75 143.667C132.944 143.667 131.181 143.313 129.458 142.604C127.736 141.896 126.25 140.917 125 139.667ZM129.667 139C130.472 139.472 131.299 139.813 132.146 140.021C132.993 140.229 133.861 140.333 134.75 140.333C136.028 140.333 137.292 140.076 138.542 139.563C139.792 139.049 140.986 138.222 142.125 137.083C142.625 136.583 143.132 135.882 143.646 134.979C144.16 134.076 144.604 132.896 144.979 131.438C145.354 129.979 145.639 128.215 145.833 126.146C146.028 124.076 146.056 121.611 145.917 118.75C144.556 118.694 143.021 118.674 141.312 118.688C139.604 118.701 137.903 118.833 136.208 119.083C134.514 119.333 132.903 119.736 131.375 120.292C129.847 120.847 128.597 121.611 127.625 122.583C126.375 123.833 125.514 125.069 125.042 126.292C124.569 127.514 124.333 128.694 124.333 129.833C124.333 131.472 124.646 132.91 125.271 134.146C125.896 135.382 126.444 136.25 126.917 136.75C128.083 134.528 129.625 132.396 131.542 130.354C133.458 128.313 135.694 126.639 138.25 125.333C136.25 127.083 134.507 129.063 133.021 131.271C131.535 133.479 130.417 136.056 129.667 139Z" fill="#096F4B"/>
<path d="M126 24.3205C124.75 23.0705 123.771 21.6261 123.062 19.9872C122.354 18.3483 122 16.6538 122 14.9038C122 13.1538 122.333 11.4247 123 9.71635C123.667 8.00801 124.75 6.40385 126.25 4.90385C127.222 3.93162 128.424 3.09829 129.854 2.40385C131.285 1.7094 132.979 1.16079 134.938 0.758013C136.896 0.355235 139.132 0.112179 141.646 0.0288462C144.16 -0.0544872 146.972 0.042735 150.083 0.320513C150.306 3.26496 150.375 5.97329 150.292 8.44551C150.208 10.9177 149.979 13.1469 149.604 15.133C149.229 17.1191 148.701 18.8552 148.021 20.3413C147.34 21.8275 146.5 23.0705 145.5 24.0705C144.028 25.5427 142.465 26.6191 140.812 27.2997C139.16 27.9802 137.472 28.3205 135.75 28.3205C133.944 28.3205 132.181 27.9663 130.458 27.258C128.736 26.5497 127.25 25.5705 126 24.3205ZM130.667 23.6538C131.472 24.1261 132.299 24.4663 133.146 24.6747C133.993 24.883 134.861 24.9872 135.75 24.9872C137.028 24.9872 138.292 24.7302 139.542 24.2163C140.792 23.7025 141.986 22.8761 143.125 21.7372C143.625 21.2372 144.132 20.5358 144.646 19.633C145.16 18.7302 145.604 17.5497 145.979 16.0913C146.354 14.633 146.639 12.8691 146.833 10.7997C147.028 8.73024 147.056 6.26496 146.917 3.40385C145.556 3.34829 144.021 3.32746 142.312 3.34135C140.604 3.35523 138.903 3.48718 137.208 3.73718C135.514 3.98718 133.903 4.38996 132.375 4.94551C130.847 5.50107 129.597 6.26496 128.625 7.23718C127.375 8.48718 126.514 9.72329 126.042 10.9455C125.569 12.1677 125.333 13.3483 125.333 14.4872C125.333 16.1261 125.646 17.5636 126.271 18.7997C126.896 20.0358 127.444 20.9038 127.917 21.4038C129.083 19.1816 130.625 17.0497 132.542 15.008C134.458 12.9663 136.694 11.2927 139.25 9.98718C137.25 11.7372 135.507 13.7163 134.021 15.9247C132.535 18.133 131.417 20.7094 130.667 23.6538Z" fill="#096F4B"/>
</svg>
