<svg width="271" height="154" viewBox="0 0 271 154" fill="none" xmlns="http://www.w3.org/2000/svg">
<mask id="path-1-inside-1_46_75" fill="white">
<path d="M138.945 51.592C144.404 36.9606 154.767 24.6746 168.268 16.8274C181.77 8.98014 197.575 6.05719 212.99 8.55658C228.405 11.056 242.477 18.823 252.807 30.5344C263.138 42.2457 269.088 57.1767 269.644 72.7833C270.2 88.3898 265.327 103.706 255.857 116.123C246.386 128.54 232.902 137.289 217.704 140.879C202.506 144.469 186.533 142.678 172.507 135.811C158.481 128.945 147.27 117.427 140.784 103.221L154.039 97.1695C159.125 108.309 167.916 117.34 178.914 122.724C189.912 128.108 202.437 129.513 214.354 126.698C226.272 123.882 236.844 117.022 244.271 107.286C251.697 97.5497 255.518 85.5396 255.082 73.302C254.646 61.0645 249.98 49.3567 241.88 40.1735C233.779 30.9903 222.745 24.9 210.658 22.9401C198.57 20.9803 186.177 23.2723 175.59 29.4255C165.003 35.5787 156.877 45.2125 152.597 56.6854L138.945 51.592Z"/>
</mask>
<path d="M138.945 51.592C144.404 36.9606 154.767 24.6746 168.268 16.8274C181.77 8.98014 197.575 6.05719 212.99 8.55658C228.405 11.056 242.477 18.823 252.807 30.5344C263.138 42.2457 269.088 57.1767 269.644 72.7833C270.2 88.3898 265.327 103.706 255.857 116.123C246.386 128.54 232.902 137.289 217.704 140.879C202.506 144.469 186.533 142.678 172.507 135.811C158.481 128.945 147.27 117.427 140.784 103.221L154.039 97.1695C159.125 108.309 167.916 117.34 178.914 122.724C189.912 128.108 202.437 129.513 214.354 126.698C226.272 123.882 236.844 117.022 244.271 107.286C251.697 97.5497 255.518 85.5396 255.082 73.302C254.646 61.0645 249.98 49.3567 241.88 40.1735C233.779 30.9903 222.745 24.9 210.658 22.9401C198.57 20.9803 186.177 23.2723 175.59 29.4255C165.003 35.5787 156.877 45.2125 152.597 56.6854L138.945 51.592Z" fill="#096F4B" stroke="#255544" stroke-width="4" mask="url(#path-1-inside-1_46_75)"/>
<mask id="path-2-inside-2_46_75" fill="white">
<path d="M130.553 102.907C124.926 117.475 114.422 129.641 100.831 137.332C87.2403 145.023 71.4028 147.764 56.0174 145.088C40.632 142.411 26.6506 134.483 16.4556 122.653C6.26048 110.824 0.482485 95.8254 0.10608 80.2135C-0.270325 64.6015 4.77815 49.342 14.3913 37.0351C24.0044 24.7281 37.5875 16.1351 52.826 12.7201C68.0645 9.30523 84.0157 11.2797 97.9617 18.3072C111.908 25.3346 122.985 36.9803 129.308 51.2598L116.027 57.1398C111.065 45.9329 102.371 36.7931 91.4257 31.2778C80.4806 25.7625 67.9617 24.2128 56.0021 26.8929C44.0425 29.573 33.3822 36.3171 25.8376 45.9759C18.2929 55.6347 14.3308 67.6107 14.6262 79.8634C14.9216 92.116 19.4563 103.887 27.4576 113.171C35.459 122.455 46.4319 128.678 58.5068 130.778C70.5816 132.879 83.0113 130.728 93.6779 124.691C104.345 118.655 112.588 109.107 117.004 97.6739L130.553 102.907Z"/>
</mask>
<path d="M130.553 102.907C124.926 117.475 114.422 129.641 100.831 137.332C87.2403 145.023 71.4028 147.764 56.0174 145.088C40.632 142.411 26.6506 134.483 16.4556 122.653C6.26048 110.824 0.482485 95.8254 0.10608 80.2135C-0.270325 64.6015 4.77815 49.342 14.3913 37.0351C24.0044 24.7281 37.5875 16.1351 52.826 12.7201C68.0645 9.30523 84.0157 11.2797 97.9617 18.3072C111.908 25.3346 122.985 36.9803 129.308 51.2598L116.027 57.1398C111.065 45.9329 102.371 36.7931 91.4257 31.2778C80.4806 25.7625 67.9617 24.2128 56.0021 26.8929C44.0425 29.573 33.3822 36.3171 25.8376 45.9759C18.2929 55.6347 14.3308 67.6107 14.6262 79.8634C14.9216 92.116 19.4563 103.887 27.4576 113.171C35.459 122.455 46.4319 128.678 58.5068 130.778C70.5816 132.879 83.0113 130.728 93.6779 124.691C104.345 118.655 112.588 109.107 117.004 97.6739L130.553 102.907Z" fill="#096F4B" stroke="#255544" stroke-width="4" mask="url(#path-2-inside-2_46_75)"/>
<path d="M43.12 87.504C41.128 87.504 39.28 87.192 37.576 86.568C35.872 85.92 34.396 85.008 33.148 83.832C31.924 82.656 30.964 81.276 30.268 79.692C29.572 78.084 29.224 76.32 29.224 74.4C29.224 72.48 29.572 70.728 30.268 69.144C30.964 67.536 31.936 66.144 33.184 64.968C34.432 63.792 35.908 62.892 37.612 62.268C39.34 61.62 41.224 61.296 43.264 61.296C45.64 61.296 47.764 61.692 49.636 62.484C51.508 63.276 53.056 64.416 54.28 65.904L49.744 70.008C48.88 69.072 47.944 68.376 46.936 67.92C45.952 67.44 44.848 67.2 43.624 67.2C42.544 67.2 41.56 67.368 40.672 67.704C39.784 68.04 39.028 68.532 38.404 69.18C37.78 69.804 37.288 70.56 36.928 71.448C36.592 72.312 36.424 73.296 36.424 74.4C36.424 75.456 36.592 76.428 36.928 77.316C37.288 78.204 37.78 78.972 38.404 79.62C39.028 80.244 39.772 80.736 40.636 81.096C41.524 81.432 42.496 81.6 43.552 81.6C44.608 81.6 45.64 81.432 46.648 81.096C47.656 80.736 48.676 80.136 49.708 79.296L53.704 84.3C52.264 85.332 50.596 86.124 48.7 86.676C46.804 87.228 44.944 87.504 43.12 87.504ZM47.404 83.364V73.86H53.704V84.3L47.404 83.364ZM57.8991 87V67.488H64.4151V73.176L63.4431 71.556C64.0191 70.092 64.9551 69 66.2511 68.28C67.5471 67.536 69.1191 67.164 70.9671 67.164V73.32C70.6551 73.272 70.3791 73.248 70.1391 73.248C69.9231 73.224 69.6831 73.212 69.4191 73.212C68.0271 73.212 66.8991 73.596 66.0351 74.364C65.1711 75.108 64.7391 76.332 64.7391 78.036V87H57.8991ZM83.838 87.324C81.534 87.324 79.518 86.892 77.79 86.028C76.086 85.14 74.754 83.94 73.794 82.428C72.858 80.892 72.39 79.152 72.39 77.208C72.39 75.264 72.846 73.536 73.758 72.024C74.694 70.488 75.978 69.3 77.61 68.46C79.242 67.596 81.078 67.164 83.118 67.164C85.038 67.164 86.79 67.56 88.374 68.352C89.958 69.12 91.218 70.26 92.154 71.772C93.09 73.284 93.558 75.12 93.558 77.28C93.558 77.52 93.546 77.796 93.522 78.108C93.498 78.42 93.474 78.708 93.45 78.972H78.006V75.372H89.814L87.222 76.38C87.246 75.492 87.078 74.724 86.718 74.076C86.382 73.428 85.902 72.924 85.278 72.564C84.678 72.204 83.97 72.024 83.154 72.024C82.338 72.024 81.618 72.204 80.994 72.564C80.394 72.924 79.926 73.44 79.59 74.112C79.254 74.76 79.086 75.528 79.086 76.416V77.46C79.086 78.42 79.278 79.248 79.662 79.944C80.07 80.64 80.646 81.18 81.39 81.564C82.134 81.924 83.022 82.104 84.054 82.104C85.014 82.104 85.83 81.972 86.502 81.708C87.198 81.42 87.882 80.988 88.554 80.412L92.154 84.156C91.218 85.188 90.066 85.98 88.698 86.532C87.33 87.06 85.71 87.324 83.838 87.324ZM106.936 87.324C104.632 87.324 102.616 86.892 100.888 86.028C99.1836 85.14 97.8516 83.94 96.8916 82.428C95.9556 80.892 95.4876 79.152 95.4876 77.208C95.4876 75.264 95.9436 73.536 96.8556 72.024C97.7916 70.488 99.0756 69.3 100.708 68.46C102.34 67.596 104.176 67.164 106.216 67.164C108.136 67.164 109.888 67.56 111.472 68.352C113.056 69.12 114.316 70.26 115.252 71.772C116.188 73.284 116.656 75.12 116.656 77.28C116.656 77.52 116.644 77.796 116.62 78.108C116.596 78.42 116.572 78.708 116.548 78.972H101.104V75.372H112.912L110.32 76.38C110.344 75.492 110.176 74.724 109.816 74.076C109.48 73.428 109 72.924 108.376 72.564C107.776 72.204 107.068 72.024 106.252 72.024C105.436 72.024 104.716 72.204 104.092 72.564C103.492 72.924 103.024 73.44 102.688 74.112C102.352 74.76 102.184 75.528 102.184 76.416V77.46C102.184 78.42 102.376 79.248 102.76 79.944C103.168 80.64 103.744 81.18 104.488 81.564C105.232 81.924 106.12 82.104 107.152 82.104C108.112 82.104 108.928 81.972 109.6 81.708C110.296 81.42 110.98 80.988 111.652 80.412L115.252 84.156C114.316 85.188 113.164 85.98 111.796 86.532C110.428 87.06 108.808 87.324 106.936 87.324ZM132.517 67.164C134.029 67.164 135.397 67.476 136.621 68.1C137.845 68.7 138.805 69.636 139.501 70.908C140.221 72.18 140.581 73.824 140.581 75.84V87H133.741V76.956C133.741 75.564 133.453 74.556 132.877 73.932C132.325 73.284 131.545 72.96 130.537 72.96C129.817 72.96 129.157 73.128 128.557 73.464C127.957 73.776 127.489 74.268 127.153 74.94C126.817 75.612 126.649 76.488 126.649 77.568V87H119.809V67.488H126.325V73.032L125.065 71.412C125.809 69.996 126.829 68.94 128.125 68.244C129.421 67.524 130.885 67.164 132.517 67.164ZM145.2 87V61.8H152.328V81.348H164.352V87H145.2ZM176.57 87.324C174.434 87.324 172.538 86.892 170.882 86.028C169.226 85.164 167.918 83.976 166.958 82.464C166.022 80.928 165.554 79.176 165.554 77.208C165.554 75.24 166.022 73.5 166.958 71.988C167.918 70.476 169.226 69.3 170.882 68.46C172.538 67.596 174.434 67.164 176.57 67.164C178.706 67.164 180.602 67.596 182.258 68.46C183.938 69.3 185.246 70.476 186.182 71.988C187.118 73.5 187.586 75.24 187.586 77.208C187.586 79.176 187.118 80.928 186.182 82.464C185.246 83.976 183.938 85.164 182.258 86.028C180.602 86.892 178.706 87.324 176.57 87.324ZM176.57 81.888C177.362 81.888 178.058 81.708 178.658 81.348C179.282 80.988 179.774 80.46 180.134 79.764C180.494 79.044 180.674 78.192 180.674 77.208C180.674 76.224 180.494 75.396 180.134 74.724C179.774 74.028 179.282 73.5 178.658 73.14C178.058 72.78 177.362 72.6 176.57 72.6C175.802 72.6 175.106 72.78 174.482 73.14C173.882 73.5 173.39 74.028 173.006 74.724C172.646 75.396 172.466 76.224 172.466 77.208C172.466 78.192 172.646 79.044 173.006 79.764C173.39 80.46 173.882 80.988 174.482 81.348C175.106 81.708 175.802 81.888 176.57 81.888ZM200.547 87.324C198.411 87.324 196.515 86.892 194.859 86.028C193.203 85.164 191.895 83.976 190.935 82.464C189.999 80.928 189.531 79.176 189.531 77.208C189.531 75.24 189.999 73.5 190.935 71.988C191.895 70.476 193.203 69.3 194.859 68.46C196.515 67.596 198.411 67.164 200.547 67.164C202.683 67.164 204.579 67.596 206.235 68.46C207.915 69.3 209.223 70.476 210.159 71.988C211.095 73.5 211.563 75.24 211.563 77.208C211.563 79.176 211.095 80.928 210.159 82.464C209.223 83.976 207.915 85.164 206.235 86.028C204.579 86.892 202.683 87.324 200.547 87.324ZM200.547 81.888C201.339 81.888 202.035 81.708 202.635 81.348C203.259 80.988 203.751 80.46 204.111 79.764C204.471 79.044 204.651 78.192 204.651 77.208C204.651 76.224 204.471 75.396 204.111 74.724C203.751 74.028 203.259 73.5 202.635 73.14C202.035 72.78 201.339 72.6 200.547 72.6C199.779 72.6 199.083 72.78 198.459 73.14C197.859 73.5 197.367 74.028 196.983 74.724C196.623 75.396 196.443 76.224 196.443 77.208C196.443 78.192 196.623 79.044 196.983 79.764C197.367 80.46 197.859 80.988 198.459 81.348C199.083 81.708 199.779 81.888 200.547 81.888ZM227.007 87.324C225.351 87.324 223.935 86.964 222.759 86.244C221.583 85.5 220.683 84.396 220.059 82.932C219.459 81.444 219.159 79.548 219.159 77.244C219.159 74.916 219.447 73.02 220.023 71.556C220.599 70.068 221.463 68.964 222.615 68.244C223.791 67.524 225.255 67.164 227.007 67.164C228.783 67.164 230.391 67.584 231.831 68.424C233.295 69.24 234.447 70.404 235.287 71.916C236.151 73.404 236.583 75.18 236.583 77.244C236.583 79.308 236.151 81.096 235.287 82.608C234.447 84.12 233.295 85.284 231.831 86.1C230.391 86.916 228.783 87.324 227.007 87.324ZM214.731 93.984V67.488H221.247V70.8L221.211 77.244L221.571 83.724V93.984H214.731ZM225.567 81.888C226.335 81.888 227.019 81.708 227.619 81.348C228.243 80.988 228.735 80.46 229.095 79.764C229.479 79.068 229.671 78.228 229.671 77.244C229.671 76.26 229.479 75.42 229.095 74.724C228.735 74.028 228.243 73.5 227.619 73.14C227.019 72.78 226.335 72.6 225.567 72.6C224.799 72.6 224.103 72.78 223.479 73.14C222.879 73.5 222.387 74.028 222.003 74.724C221.643 75.42 221.463 76.26 221.463 77.244C221.463 78.228 221.643 79.068 222.003 79.764C222.387 80.46 222.879 80.988 223.479 81.348C224.103 81.708 224.799 81.888 225.567 81.888Z" fill="black" fill-opacity="0.82"/>
<path d="M124 146.667C122.75 145.417 121.771 143.972 121.062 142.333C120.354 140.694 120 139 120 137.25C120 135.5 120.333 133.771 121 132.063C121.667 130.354 122.75 128.75 124.25 127.25C125.222 126.278 126.424 125.444 127.854 124.75C129.285 124.056 130.979 123.507 132.938 123.104C134.896 122.701 137.132 122.458 139.646 122.375C142.16 122.292 144.972 122.389 148.083 122.667C148.306 125.611 148.375 128.319 148.292 130.792C148.208 133.264 147.979 135.493 147.604 137.479C147.229 139.465 146.701 141.201 146.021 142.688C145.34 144.174 144.5 145.417 143.5 146.417C142.028 147.889 140.465 148.965 138.812 149.646C137.16 150.326 135.472 150.667 133.75 150.667C131.944 150.667 130.181 150.313 128.458 149.604C126.736 148.896 125.25 147.917 124 146.667ZM128.667 146C129.472 146.472 130.299 146.813 131.146 147.021C131.993 147.229 132.861 147.333 133.75 147.333C135.028 147.333 136.292 147.076 137.542 146.563C138.792 146.049 139.986 145.222 141.125 144.083C141.625 143.583 142.132 142.882 142.646 141.979C143.16 141.076 143.604 139.896 143.979 138.438C144.354 136.979 144.639 135.215 144.833 133.146C145.028 131.076 145.056 128.611 144.917 125.75C143.556 125.694 142.021 125.674 140.312 125.688C138.604 125.701 136.903 125.833 135.208 126.083C133.514 126.333 131.903 126.736 130.375 127.292C128.847 127.847 127.597 128.611 126.625 129.583C125.375 130.833 124.514 132.069 124.042 133.292C123.569 134.514 123.333 135.694 123.333 136.833C123.333 138.472 123.646 139.91 124.271 141.146C124.896 142.382 125.444 143.25 125.917 143.75C127.083 141.528 128.625 139.396 130.542 137.354C132.458 135.313 134.694 133.639 137.25 132.333C135.25 134.083 133.507 136.063 132.021 138.271C130.535 140.479 129.417 143.056 128.667 146Z" fill="#096F4B"/>
<path d="M123 32.6667C121.75 31.4167 120.771 29.9723 120.062 28.3334C119.354 26.6945 119 25 119 23.25C119 21.5 119.333 19.7709 120 18.0625C120.667 16.3542 121.75 14.75 123.25 13.25C124.222 12.2778 125.424 11.4445 126.854 10.75C128.285 10.0556 129.979 9.50698 131.938 9.1042C133.896 8.70143 136.132 8.45837 138.646 8.37504C141.16 8.2917 143.972 8.38893 147.083 8.6667C147.306 11.6111 147.375 14.3195 147.292 16.7917C147.208 19.2639 146.979 21.4931 146.604 23.4792C146.229 25.4653 145.701 27.2014 145.021 28.6875C144.34 30.1736 143.5 31.4167 142.5 32.4167C141.028 33.8889 139.465 34.9653 137.812 35.6459C136.16 36.3264 134.472 36.6667 132.75 36.6667C130.944 36.6667 129.181 36.3125 127.458 35.6042C125.736 34.8959 124.25 33.9167 123 32.6667ZM127.667 32C128.472 32.4723 129.299 32.8125 130.146 33.0209C130.993 33.2292 131.861 33.3334 132.75 33.3334C134.028 33.3334 135.292 33.0764 136.542 32.5625C137.792 32.0486 138.986 31.2223 140.125 30.0834C140.625 29.5834 141.132 28.882 141.646 27.9792C142.16 27.0764 142.604 25.8959 142.979 24.4375C143.354 22.9792 143.639 21.2153 143.833 19.1459C144.028 17.0764 144.056 14.6111 143.917 11.75C142.556 11.6945 141.021 11.6736 139.312 11.6875C137.604 11.7014 135.903 11.8334 134.208 12.0834C132.514 12.3334 130.903 12.7361 129.375 13.2917C127.847 13.8473 126.597 14.6111 125.625 15.5834C124.375 16.8334 123.514 18.0695 123.042 19.2917C122.569 20.5139 122.333 21.6945 122.333 22.8334C122.333 24.4723 122.646 25.9098 123.271 27.1459C123.896 28.382 124.444 29.25 124.917 29.75C126.083 27.5278 127.625 25.3959 129.542 23.3542C131.458 21.3125 133.694 19.6389 136.25 18.3334C134.25 20.0834 132.507 22.0625 131.021 24.2709C129.535 26.4792 128.417 29.0556 127.667 32Z" fill="#096F4B"/>
</svg>
